<svg width="46" height="46" viewBox="0 0 46 46" fill="none" xmlns="http://www.w3.org/2000/svg">
<g id="solar:cart-outline">
<path id="Vector" fill-rule="evenodd" clip-rule="evenodd" d="M16.1345 6.22917C16.6712 5.09833 17.8269 4.3125 19.1667 4.3125H26.8334C28.1712 4.3125 29.3269 5.09833 29.8655 6.22917C31.1746 6.24067 32.1962 6.30008 33.1085 6.65658C34.1976 7.0826 35.1448 7.80661 35.8417 8.74575C36.5451 9.69067 36.8748 10.9058 37.329 12.5752L37.3999 12.8359L38.5308 16.9893C39.2848 17.3698 39.9457 17.9116 40.4666 18.5763C41.6588 20.1039 41.8696 21.9228 41.6588 24.0082C41.4518 26.0322 40.8154 28.5813 40.0181 31.7726L39.9664 31.9738C39.4623 33.9921 39.0521 35.6308 38.5672 36.9092C38.0574 38.2432 37.4134 39.3357 36.3496 40.1657C35.2878 40.9956 34.0707 41.354 32.6543 41.5265C31.2954 41.6875 29.6068 41.6875 27.5272 41.6875H18.4729C16.3933 41.6875 14.7028 41.6875 13.3458 41.5246C11.9274 41.3559 10.7123 40.9956 9.64853 40.1637C8.58669 39.3358 7.94269 38.2432 7.43286 36.9092C6.94603 35.6308 6.53778 33.9921 6.03369 31.9738L5.98194 31.7726C5.18461 28.5813 4.54636 26.0322 4.34128 24.0101C4.13044 21.9209 4.34128 20.1039 5.53153 18.5763C6.07394 17.8825 6.72369 17.3688 7.46736 16.9893L8.59819 12.8359L8.67103 12.5752C9.12528 10.9058 9.45494 9.69067 10.1584 8.74383C10.8555 7.8054 11.8027 7.08208 12.8915 6.65658C13.8039 6.30008 14.8235 6.23875 16.1345 6.22917ZM16.1364 9.10992C14.8676 9.12333 14.3597 9.17125 13.938 9.33608C13.3515 9.56547 12.8413 9.95538 12.466 10.4612C12.1287 10.9154 11.9294 11.5498 11.3735 13.5949L10.695 16.0789C12.6845 15.8125 15.2529 15.8125 18.4422 15.8125H27.5559C30.7472 15.8125 33.3155 15.8125 35.3031 16.0789L34.6265 13.593C34.0688 11.5479 33.8714 10.9135 33.534 10.4592C33.1587 9.95346 32.6486 9.56355 32.062 9.33417C31.6404 9.16933 31.1305 9.12142 29.8617 9.108C29.5893 9.68043 29.1602 10.1639 28.6242 10.5025C28.0883 10.841 27.4673 11.0208 26.8334 11.0208H19.1667C18.5327 11.0208 17.9118 10.841 17.3758 10.5025C16.8398 10.1639 16.4108 9.68043 16.1384 9.108M19.1667 7.1875C19.0396 7.1875 18.9177 7.23798 18.8279 7.32784C18.738 7.41771 18.6875 7.53958 18.6875 7.66667C18.6875 7.79375 18.738 7.91563 18.8279 8.00549C18.9177 8.09535 19.0396 8.14583 19.1667 8.14583H26.8334C26.9604 8.14583 27.0823 8.09535 27.1722 8.00549C27.262 7.91563 27.3125 7.79375 27.3125 7.66667C27.3125 7.53958 27.262 7.41771 27.1722 7.32784C27.0823 7.23798 26.9604 7.1875 26.8334 7.1875H19.1667ZM10.925 18.9482C9.18086 19.2012 8.33561 19.6612 7.80086 20.3473C7.26419 21.0316 7.02461 21.9612 7.20286 23.7168C7.38494 25.5108 7.96953 27.8568 8.80136 31.1918C9.33419 33.3155 9.70219 34.7875 10.1239 35.8877C10.5264 36.9495 10.9231 37.5111 11.4214 37.9002C11.9179 38.2873 12.558 38.5346 13.6889 38.6707C14.858 38.8106 16.3722 38.8125 18.5649 38.8125H27.439C29.6298 38.8125 31.1478 38.8106 32.315 38.6707C33.4459 38.5365 34.086 38.2873 34.5824 37.9002C35.0808 37.5111 35.4756 36.9495 35.8819 35.8877C36.2998 34.7875 36.6697 33.3155 37.2006 31.1918C38.0344 27.8568 38.6189 25.5108 38.7991 23.7168C38.9793 21.9612 38.7378 21.0297 38.203 20.3454C37.6683 19.6612 36.823 19.2012 35.0769 18.9482C33.2944 18.6913 30.8756 18.6875 27.439 18.6875H18.5649C15.1283 18.6875 12.7094 18.6913 10.9269 18.9482" fill="black" fill-opacity="0.85"/>
</g>
</svg>
