<svg width="38" height="38" viewBox="0 0 38 38" fill="none" xmlns="http://www.w3.org/2000/svg">
<path d="M30.8748 6.33341H26.1248V3.95841C26.1248 3.74845 26.0414 3.54709 25.893 3.39862C25.7445 3.25016 25.5431 3.16675 25.3332 3.16675C25.1232 3.16675 24.9218 3.25016 24.7734 3.39862C24.6249 3.54709 24.5415 3.74845 24.5415 3.95841V6.33341H13.4582V3.95841C13.4582 3.74845 13.3748 3.54709 13.2263 3.39862C13.0778 3.25016 12.8765 3.16675 12.6665 3.16675C12.4565 3.16675 12.2552 3.25016 12.1067 3.39862C11.9582 3.54709 11.8748 3.74845 11.8748 3.95841V6.33341H7.12484C6.07541 6.33467 5.06932 6.75211 4.32726 7.49417C3.5852 8.23623 3.16776 9.24232 3.1665 10.2917V30.8751C3.16776 31.9245 3.5852 32.9306 4.32726 33.6727C5.06932 34.4147 6.07541 34.8322 7.12484 34.8334H30.8748C31.9247 34.8334 32.9315 34.4164 33.6738 33.674C34.4161 32.9317 34.8332 31.9249 34.8332 30.8751V10.2917C34.8332 9.24193 34.4161 8.23512 33.6738 7.49278C32.9315 6.75045 31.9247 6.33341 30.8748 6.33341ZM33.2498 30.8751C33.2498 31.505 32.9996 32.1091 32.5542 32.5545C32.1088 32.9999 31.5047 33.2501 30.8748 33.2501H7.12484C6.49495 33.2501 5.89086 32.9999 5.44546 32.5545C5.00006 32.1091 4.74984 31.505 4.74984 30.8751V17.4167H33.2498V30.8751ZM33.2498 15.8334H4.74984V10.2917C4.74984 8.98075 5.81067 7.91675 7.12484 7.91675H11.8748V10.2917C11.8748 10.5017 11.9582 10.7031 12.1067 10.8515C12.2552 11 12.4565 11.0834 12.6665 11.0834C12.8765 11.0834 13.0778 11 13.2263 10.8515C13.3748 10.7031 13.4582 10.5017 13.4582 10.2917V7.91675H24.5415V10.2917C24.5415 10.5017 24.6249 10.7031 24.7734 10.8515C24.9218 11 25.1232 11.0834 25.3332 11.0834C25.5431 11.0834 25.7445 11 25.893 10.8515C26.0414 10.7031 26.1248 10.5017 26.1248 10.2917V7.91675H30.8748C31.5047 7.91675 32.1088 8.16697 32.5542 8.61237C32.9996 9.05777 33.2498 9.66186 33.2498 10.2917V15.8334Z" fill="black" fill-opacity="0.8"/>
</svg>
